<?xml version="1.0" encoding="UTF-8"?>
<!DOCTYPE svg PUBLIC "-//W3C//DTD SVG 1.1//EN" "http://www.w3.org/Graphics/SVG/1.1/DTD/svg11.dtd">
<!-- Creator: CorelDRAW 2020 (64-Bit) -->
<svg xmlns="http://www.w3.org/2000/svg" xml:space="preserve" width="5.24335in" height="5.24758in" version="1.1" style="shape-rendering:geometricPrecision; text-rendering:geometricPrecision; image-rendering:optimizeQuality; fill-rule:evenodd; clip-rule:evenodd"
viewBox="0 0 5045.83 5049.91"
 xmlns:xlink="http://www.w3.org/1999/xlink"
 xmlns:xodm="http://www.corel.com/coreldraw/odm/2003">
 <defs>
  <style type="text/css">
   <![CDATA[
    .fil0 {fill:#006CB0;fill-rule:nonzero}
    .fil1 {fill:#0081D1;fill-rule:nonzero}
    .fil2 {fill:#202020;fill-rule:nonzero}
    .fil3 {fill:#333333;fill-rule:nonzero}
   ]]>
  </style>
 </defs>
 <g id="Layer_x0020_1">
  <metadata id="CorelCorpID_0Corel-Layer"/>
  <polygon class="fil0" points="1342.99,0 5045.83,0 5045.83,4409.73 2300.46,4409.73 2300.46,2995.97 3632.08,2995.97 3632.08,1413.75 2049.86,1413.75 2049.86,2745.34 636.11,2745.34 636.11,0 "/>
 </g>
 <g id="Layer_x0020_2">
  <metadata id="CorelCorpID_1Corel-Layer"/>
  <polygon class="fil1" points="5045.83,7.02 5045.83,4409.73 2300.46,4409.73 2300.46,2995.98 3632.08,2995.98 3632.08,1430.72 "/>
 </g>
 <g id="Layer_x0020_3">
  <metadata id="CorelCorpID_2Corel-Layer"/>
  <polygon class="fil2" points="2049.86,4409.73 2049.86,4616.76 2049.86,5049.91 636.11,5049.91 636.11,4409.73 -0,4409.73 -0,2995.97 636.11,2995.97 636.11,2995.94 2049.86,2995.94 2049.86,2995.97 "/>
 </g>
 <g id="Layer_x0020_4">
  <metadata id="CorelCorpID_3Corel-Layer"/>
  <path class="fil3" d="M2049.86 4409.73l0 207.03 0 433.15 -1413.75 0c0,-213.39 0,-426.79 0,-640.18l1413.75 -1413.79 0 0.03 0 1413.75z"/>
 </g>
</svg>
