<?xml version="1.0" encoding="UTF-8"?>
<!DOCTYPE svg PUBLIC "-//W3C//DTD SVG 1.1//EN" "http://www.w3.org/Graphics/SVG/1.1/DTD/svg11.dtd">
<!-- Creator: CorelDRAW 2020 (64-Bit) -->
<svg xmlns="http://www.w3.org/2000/svg" xml:space="preserve" width="5.24848in" height="5.74135in" version="1.1" style="shape-rendering:geometricPrecision; text-rendering:geometricPrecision; image-rendering:optimizeQuality; fill-rule:evenodd; clip-rule:evenodd"
viewBox="0 0 5046.21 5520.09"
 xmlns:xlink="http://www.w3.org/1999/xlink"
 xmlns:xodm="http://www.corel.com/coreldraw/odm/2003">
 <defs>
  <style type="text/css">
   <![CDATA[
    .fil0 {fill:#006CB0;fill-rule:nonzero}
    .fil1 {fill:#0081D1;fill-rule:nonzero}
    .fil2 {fill:#202020;fill-rule:nonzero}
    .fil3 {fill:#333333;fill-rule:nonzero}
   ]]>
  </style>
 </defs>
 <g id="Layer_x0020_1">
  <metadata id="CorelCorpID_0Corel-Layer"/>
  <polygon class="fil0" points="1346.71,0 5046.21,0 5046.21,4405.74 2303.32,4405.74 2303.32,2993.27 3633.73,2993.27 3633.73,1412.48 2052.95,1412.48 2052.95,2742.86 640.47,2742.86 640.47,0 "/>
 </g>
 <g id="Layer_x0020_2">
  <metadata id="CorelCorpID_1Corel-Layer"/>
  <polygon class="fil1" points="5046.21,7.02 5046.21,4405.74 2303.32,4405.74 2303.32,2993.27 3633.74,2993.27 3633.74,1429.43 "/>
 </g>
 <g id="Layer_x0020_3">
  <metadata id="CorelCorpID_2Corel-Layer"/>
  <polygon class="fil2" points="2052.95,4405.74 2052.95,4612.58 2052.95,5045.34 640.47,5045.34 640.47,4405.74 4.94,4405.74 4.94,2993.27 640.47,2993.27 640.47,2993.23 2052.95,2993.23 2052.95,2993.27 "/>
 </g>
 <g id="Layer_x0020_4">
  <metadata id="CorelCorpID_3Corel-Layer"/>
  <path class="fil3" d="M2052.95 4405.74l0 206.84 0 432.76 -1412.48 0c0,-213.2 0,-426.4 0,-639.6l1412.48 -1412.51 0 0.03 0 1412.48z"/>
 </g>
 <g id="Layer_x0020_5">
  <metadata id="CorelCorpID_4Corel-Layer"/>
  <path class="fil3" d="M0.43 5516.3l-0.43 -297.38 142.91 0c45.61,0 68.57,22.96 68.87,68.87l0.02 55.33c-0.31,45.93 -23.28,68.89 -68.89,68.89l-99.61 0 0 108.08 -42.86 0 -0.01 -3.79zm42.87 -144.2l100.04 0c16.76,0 25.15,-8.38 25.15,-25.15l0 -62.98c0,-16.76 -8.38,-25.15 -25.15,-25.15l-100.04 0 0 113.27zm184.75 135.35l97.04 -288.53 64.13 0c32.53,96.76 64.97,193.56 97.63,290.28l-7.26 10.89 -34.11 0 -24.26 -74.04 -128.14 0 -24.26 74.04 -34.11 0 -7.26 -10.89 0.59 -1.75zm78.17 -101.31l101.87 0 -48.57 -147.31 -4.74 0 -48.57 147.31zm226.51 110.16l-0.43 -297.38 142.91 0c45.61,0 68.57,22.96 68.87,68.87l0.02 55.33c-0.31,45.93 -23.28,68.89 -68.89,68.89l-99.61 0 0 108.08 -42.86 0 -0.01 -3.79zm42.87 -144.2l100.04 0c16.76,0 25.15,-8.38 25.15,-25.15l0 -62.98c0,-16.76 -8.38,-25.15 -25.15,-25.15l-100.04 0 0 113.27zm202.12 -143.71l5.8 -9.47 34.58 0 77.74 144.32 77.74 -144.32 34.58 0 6.93 11.34 -97.6 178.07 0 111.76 -43.31 0 0 -111.76 -97.6 -178.07 1.14 -1.86zm282.61 287.91l0 -297.38 142.92 0c45.92,0 68.89,22.97 68.89,68.89l0 46.8c0,19.26 -4.2,34.49 -12.57,45.67 -7.61,10.14 -18.55,16.83 -32.82,20.06l54.39 107.52 -6.73 12.22 -34.75 0 -59.14 -116.59 -76.88 0 0 116.59 -43.31 0 0 -3.79zm43.31 -152.71l100.04 0c8.6,0 14.95,-2.04 19.03,-6.11 4.07,-4.09 6.12,-10.43 6.12,-19.03l0 -54.47c0,-16.76 -8.38,-25.15 -25.15,-25.15l-100.04 0 0 104.76zm233.04 87.61l0 -232.28 43.31 0 0 236.11c0,16.76 8.38,25.15 25.15,25.15l91.91 0c16.76,0 25.15,-8.38 25.15,-25.15l0 -236.11 43.31 0 0 232.28c0,45.92 -22.97,68.89 -68.89,68.89l-91.06 0c-45.92,0 -68.89,-22.97 -68.89,-68.89zm289.13 50.21l0 -21.23 134.84 0c16.76,0 25.15,-8.38 25.15,-25.15l0 -34.46c0,-14.1 -6.22,-22.36 -18.64,-24.8l-91.5 -18.73c-16.54,-3.3 -29.01,-10.56 -37.38,-21.75 -8.31,-11.11 -12.47,-25.94 -12.47,-44.5l0 -22.98c0,-22.72 5.8,-39.89 17.39,-51.49 11.61,-11.6 28.78,-17.4 51.5,-17.4l102.97 0 2.32 0.8 20.61 16.03 0 23.08 -126.33 0c-16.76,0 -25.15,8.38 -25.15,25.15l0 28.93c0,14.1 6.22,22.36 18.64,24.8l91.5 18.3c16.55,3.31 29.02,10.61 37.4,21.89 8.3,11.17 12.45,26.11 12.45,44.8l0 28.51c0,45.92 -22.97,68.89 -68.89,68.89l-111.48 0 -2.32 -0.8 -20.61 -16.03 0 -1.85zm385.65 -50.21l0 -163.39c0,-45.92 22.97,-68.89 68.89,-68.89l119.99 0 2.32 0.8 20.61 16.03 0 23.08 -143.35 0c-16.76,0 -25.15,8.38 -25.15,25.15l0 171.05c0,16.76 8.38,25.15 25.15,25.15l143.35 0 0 23.08 -20.61 16.03 -2.32 0.8 -119.99 0c-45.92,0 -68.89,-22.97 -68.89,-68.89zm266.15 0l0 -163.39c0,-45.92 22.97,-68.89 68.89,-68.89l99.56 0c45.92,0 68.89,22.97 68.89,68.89l0 163.39c0,45.92 -22.97,68.89 -68.89,68.89l-99.56 0c-45.92,0 -68.89,-22.97 -68.89,-68.89zm43.31 3.83c0,16.76 8.38,25.15 25.15,25.15l100.42 0c16.76,0 25.15,-8.38 25.15,-25.15l0 -171.05c0,-16.76 -8.38,-25.15 -25.15,-25.15l-100.42 0c-16.76,0 -25.15,8.38 -25.15,25.15l0 171.05zm265.39 61.27l0 -297.38 53.4 0 95.9 203.42 95.48 -203.42 53.41 0 0 301.17 -43.31 0 0 -226.85 -86.59 184.3 -38.39 0 -86.59 -184.3 0 226.85 -43.31 0 0 -3.79zm374.24 0l-0.43 -297.38 142.92 0c45.61,0 68.57,22.96 68.87,68.87l0.02 55.33c-0.31,45.93 -23.28,68.89 -68.89,68.89l-99.61 0 0 108.08 -42.87 0 -0 -3.79zm42.87 -144.2l100.04 0c16.76,0 25.15,-8.38 25.15,-25.15l0 -62.98c0,-16.76 -8.38,-25.15 -25.15,-25.15l-100.04 0 0 113.27zm231.34 144.2l0 -297.38 43.31 0 0 301.17 -43.31 0 0 -3.79zm119.36 0l-0.43 -297.38 43.3 0 0 261.26 142.97 0 0 39.91 -185.84 0 -0 -3.79zm233.81 0l-0.43 -297.38 199.04 0 0 39.91 -155.73 0 0 83.49 142.97 0 0 39.91 -142.97 0 0 97.96 155.73 0 0 39.91 -198.6 0 -0 -3.79zm257.2 0l0 -297.38 142.92 0c45.92,0 68.89,22.97 68.89,68.89l0 46.8c0,19.26 -4.2,34.49 -12.57,45.67 -7.6,10.14 -18.55,16.83 -32.82,20.06l54.39 107.52 -6.73 12.22 -34.75 0 -59.14 -116.59 -76.88 0 0 116.59 -43.31 0 0 -3.79zm43.31 -152.71l100.04 0c8.6,0 14.95,-2.04 19.03,-6.11 4.07,-4.09 6.12,-10.43 6.12,-19.03l0 -54.47c0,-16.76 -8.38,-25.15 -25.15,-25.15l-100.04 0 0 104.76zm329.78 143.86l97.04 -288.53 64.13 0c32.66,96.71 65.16,193.5 97.63,290.28l-7.26 10.89 -34.11 0 -24.25 -74.04 -128.14 0 -24.26 74.04 -34.11 0 -7.26 -10.89 0.59 -1.75zm78.17 -101.31l101.87 0 -48.57 -147.31 -4.74 0 -48.57 147.31zm226.51 110.16l-0.43 -297.38 142.92 0c45.61,0 68.57,22.96 68.87,68.87l0.02 55.33c-0.31,45.93 -23.28,68.89 -68.89,68.89l-99.61 0 0 108.08 -42.87 0 -0 -3.79zm42.87 -144.2l100.04 0c16.76,0 25.15,-8.38 25.15,-25.15l0 -62.98c0,-16.76 -8.38,-25.15 -25.15,-25.15l-100.04 0 0 113.27zm231.78 144.2l-0.43 -297.38 142.92 0c45.61,0 68.57,22.96 68.87,68.87l0.02 55.33c-0.31,45.93 -23.28,68.89 -68.89,68.89l-99.61 0 0 108.08 -42.87 0 -0 -3.79zm42.87 -144.2l100.04 0c16.76,0 25.15,-8.38 25.15,-25.15l0 -62.98c0,-16.76 -8.38,-25.15 -25.15,-25.15l-100.04 0 0 113.27z"/>
 </g>
</svg>
