<!--
  - Copyright (c) 2022 Kiyozz~WK~WushuLate.
  -
  - All rights reserved.
  -->

<svg width="1024" height="1024" xmlns="http://www.w3.org/2000/svg" class="iconLeft">
 <defs>
  <linearGradient y2="0%" x2="100%" y1="0%" x1="0%" id="gradient" gradientTransform="rotate(25)">
   <stop stop-color="#0076DD" offset="0%"/>
   <stop stop-color="#E600E9" offset="100%"/>
  </linearGradient>
 </defs>
 <!---->
 <g>
  <title>background</title>
  <rect fill="none" id="canvas_background" height="402" width="582" y="-1" x="-1"/>
 </g>
 <g>
  <title>Layer 1</title>
  <rect id="svg_1" class="logo-background-square" height="1024" width="1024" y="-1" x="1" fill="#EDE3FB"/>
  <g id="svg_2" transform="matrix(6.633282285733319,0,0,6.633282285733319,200,512) " fill="#221447">
   <path id="svg_3" d="m11.526806,0.214998l3.13,0c1.97,0 3.19,-1.15 3.19,-2.99c0,-1.82 -1.22,-2.98 -3.19,-2.98l-4.18,0l0,9.27l1.05,0l0,-3.3zm3.06,-4.97c1.45,0 2.21,0.75 2.21,1.98c0,1.25 -0.76,2.01 -2.21,2.01l-3.06,0l0,-3.99l3.06,0zm7.33,1.16c-2.04,0 -3.39,1.61 -3.39,3.61c0,2 1.35,3.61 3.39,3.61c1.16,0 1.99,-0.47 2.51,-1.23l0,1.12l1.05,0l0,-7l-1.05,0l0,1.13c-0.52,-0.75 -1.35,-1.24 -2.51,-1.24zm0.14,6.27c-1.55,0 -2.48,-1.22 -2.48,-2.66c0,-1.44 0.93,-2.66 2.48,-2.66c1.56,0 2.42,1.22 2.42,2.66c0,1.44 -0.86,2.66 -2.42,2.66zm8.79,0.95c2.05,0 3.39,-1.61 3.39,-3.61c0,-2 -1.34,-3.61 -3.39,-3.61c-1.16,0 -1.98,0.47 -2.5,1.23l0,-1.12l-1.05,0l0,9.77l1.05,0l0,-3.9c0.52,0.75 1.34,1.24 2.5,1.24zm-0.14,-6.27c1.56,0 2.48,1.22 2.48,2.66c0,1.44 -0.92,2.66 -2.48,2.66c-1.55,0 -2.42,-1.22 -2.42,-2.66c0,-1.44 0.87,-2.66 2.42,-2.66zm10.81,-0.84l-1.15,0l-2.29,5.74l-2.26,-5.74l-1.16,0l2.86,6.9l-1.28,2.87l1.14,0l4.14,-9.77zm4.58,-0.11c-1.74,0 -2.44,1.36 -2.58,1.83l0,-1.72l-1.05,0l0,7l1.05,0l0,-3.08c0,-1.54 0.96,-2.98 2.52,-2.98l0.13,0l0,-1.05l-0.07,0zm7.31,7.11l0,-7l-1.05,0l0,4.03c0,1.26 -0.95,2.13 -2.12,2.13c-1.14,0 -1.96,-0.84 -1.96,-2.11l0,-4.05l-1.05,0l0,4.07c0,1.99 1.36,3.04 2.8,3.04c1.14,0 1.82,-0.53 2.33,-1.2l0,1.09l1.05,0zm4.25,-7.11c-1.8,0 -2.74,0.74 -2.74,2c0,2.56 4.66,1.47 4.66,3.22c0,0.95 -1.22,1.11 -1.79,1.11c-1.36,0 -1.89,-0.7 -1.96,-1.42l-1.09,0c0.07,1.23 1.09,2.31 3.04,2.31c1.73,0 2.85,-0.74 2.85,-2.1c0,-2.63 -4.66,-1.54 -4.66,-3.22c0,-0.68 0.57,-1.01 1.67,-1.01c1.17,0 1.62,0.49 1.7,1.1l1.07,0c-0.13,-1.03 -0.9,-1.99 -2.75,-1.99zm11.5,6.2c-2.26,0 -3.52,-1.64 -3.52,-3.72c0,-2.09 1.26,-3.73 3.52,-3.73c1.52,0 2.53,0.73 3.01,1.86l1.1,0c-0.58,-1.69 -2.1,-2.88 -4.2,-2.88c-2.78,0 -4.48,2.11 -4.48,4.75c0,2.63 1.7,4.74 4.48,4.74c2.1,0 3.62,-1.19 4.2,-2.88l-1.1,0c-0.48,1.13 -1.49,1.86 -3.01,1.86zm8.5,-6.2c-2.15,0 -3.48,1.61 -3.48,3.61c0,2 1.33,3.61 3.48,3.61c2.14,0 3.47,-1.61 3.47,-3.61c0,-2 -1.33,-3.61 -3.47,-3.61zm0,6.27c-1.56,0 -2.43,-1.22 -2.43,-2.66c0,-1.44 0.87,-2.66 2.43,-2.66c1.55,0 2.42,1.22 2.42,2.66c0,1.44 -0.87,2.66 -2.42,2.66zm10.58,-3.35c0,-1.24 0.85,-1.97 1.89,-1.97c0.98,0 1.74,0.78 1.74,1.96l0,4.2l1.05,0l0,-4.23c0,-1.76 -1.25,-2.88 -2.59,-2.88c-1.39,0 -2.13,0.94 -2.41,1.41c-0.45,-0.89 -1.3,-1.41 -2.23,-1.41c-1.13,0 -1.8,0.61 -2.13,1.17l0,-1.06l-1.05,0l0,7l1.05,0l0,-4.19c0,-1.24 0.86,-1.97 1.89,-1.97c0.98,0 1.74,0.78 1.74,1.96l0,4.2l1.05,0l0,-4.19zm9.98,4.3c2.05,0 3.39,-1.61 3.39,-3.61c0,-2 -1.34,-3.61 -3.39,-3.61c-1.16,0 -1.99,0.47 -2.5,1.23l0,-1.12l-1.05,0l0,9.77l1.05,0l0,-3.9c0.51,0.75 1.34,1.24 2.5,1.24zm-0.14,-6.27c1.56,0 2.48,1.22 2.48,2.66c0,1.44 -0.92,2.66 -2.48,2.66c-1.55,0 -2.42,-1.22 -2.42,-2.66c0,-1.44 0.87,-2.66 2.42,-2.66zm4.9,6.16l1.05,0l0,-7l-1.05,0l0,7zm-0.04,-9.55l0,1.37l1.13,0l0,-1.37l-1.13,0zm3.96,-0.25l-1.05,0l0,9.8l1.05,0l0,-9.8zm4.94,8.96c-1.41,0 -2.32,-0.99 -2.47,-2.24l5.86,0l0,-0.42c0,-2 -1.33,-3.61 -3.47,-3.61c-2.14,0 -3.47,1.61 -3.47,3.61c0,2 1.4,3.61 3.54,3.61c1.67,0 2.7,-0.87 3.19,-2.13l-1.15,0c-0.37,0.7 -1.05,1.18 -2.03,1.18zm-0.08,-5.32c1.34,0 2.18,0.91 2.38,2.1l-4.76,0c0.2,-1.19 1.04,-2.1 2.38,-2.1zm8.39,-0.95c-1.74,0 -2.44,1.36 -2.58,1.83l0,-1.72l-1.05,0l0,7l1.05,0l0,-3.08c0,-1.54 0.95,-2.98 2.52,-2.98l0.13,0l0,-1.05l-0.07,0z"/>
  </g>
  <g id="svg_4" transform="matrix(2.390250032442701,0,0,2.390250032442701,7.267698900412256,289.8543841367973) " fill="url(#gradient)">
   <path id="svg_5" d="m93.675494,68.225743l-35.8,-20.7c-1.6,-0.9 -3.6,-0.9 -5.2,0l-36.3,20.9l0.4,0c-1.7,0.9 -2.5,2.7 -2.5,4.7l0,39.5c0,1.9 0.5,3.6 2.2,4.5l36.4,21.2c0.8,0.5 1.6,0.7 2.5,0.7l0.2,0c0.9,0 1.8,-0.2 2.6,-0.7l36.6,-21.2c1.6,-0.9 2.6,-2.7 2.6,-4.5l0,-39.5c-0.1,-2.3 -1.6,-4.2 -3.7,-4.9zm-38.4,-10.2l25.8,14.9l-25.8,14.9l-25.8,-14.9l25.8,-14.9zm-31,51.6l0,-27.9l25,15.1l0,28l-25,-15.2zm35,15.2l0,-28.1l28,-15.1l0,28.1l-28,15.1z"/>
  </g>
 </g>
</svg>
